<?xml version="1.0" encoding="utf-8"?>
<!-- Generator: Adobe Illustrator 17.0.0, SVG Export Plug-In . SVG Version: 6.00 Build 0)  -->
<!DOCTYPE svg PUBLIC "-//W3C//DTD SVG 1.1//EN" "http://www.w3.org/Graphics/SVG/1.1/DTD/svg11.dtd">
<svg version="1.1" id="Layer_1" xmlns="http://www.w3.org/2000/svg" xmlns:xlink="http://www.w3.org/1999/xlink" x="0px" y="0px"
	 width="772px" height="450px" viewBox="0 0 772 450" enable-background="new 0 0 772 450" xml:space="preserve">
<g>
	<rect x="1.5" y="1.5" fill="#FFFFFF" width="769" height="447"/>
	<path fill="#DCDCDC" d="M769,3v444H3V3H769 M772,0H0v450h772V0L772,0z"/>
</g>
<g>
	<path fill="#0078A8" d="M343.2,207.9h-44.5v-55.8h44.5v11.6H312v10h30.5v11.4H312v11.1h31.2V207.9z M243.9,207.9l-19.3-43.7v43.7
		h-27.1l-5.1-12.4h-27.8l-5.2,12.4h-14.5l23.9-55.8h19.8l22.7,52.8v-52.8H233l17.5,37.8l16-37.8h22.2v55.8H275l-0.1-43.7l-19.3,43.7
		H243.9z M187.5,183.9l-9.1-22.2l-9.1,22.2H187.5z M403.2,266.5c0,15.5-11.6,18.7-23.3,18.7h-16.6v18.7h-25.9L321,285.5L304,304
		h-52.8v-55.8h53.6l16.4,18.3l17-18.3h42.6C391.3,248.2,403.2,251.1,403.2,266.5L403.2,266.5z M312.4,275.9l-14.6-16.2h-33.4v10.2
		h29.2v11.4h-29.2v11.1h32.7L312.4,275.9z M350.1,254.2l-20.5,22l20.5,22.7V254.2z M388.8,266.5c0-4.9-3.3-6.9-8.1-6.9h-17.4v14.2
		h17.2C385.7,273.9,388.8,271.4,388.8,266.5L388.8,266.5z M365.8,207.9h-13.4v-55.8h30.7c6.8,0,11.8,0.2,16.1,2.7
		c4.2,2.5,6.7,6.1,6.7,12.4c0,8.9-5.9,13.5-9.4,14.9c2.9,1.1,5.4,3.1,6.6,4.7c1.9,2.8,2.2,5.3,2.2,10.3V208h-13.5l-0.1-7.1
		c0-3.3,0.3-8.2-2.1-10.9c-2-1.9-4.9-2.4-9.7-2.4h-14.2L365.8,207.9L365.8,207.9z M365.7,176.1H382c2.6,0,4.7-0.1,6.6-1.2
		c1.7-0.9,2.7-2.8,2.7-5.3c0-2.4-1.1-4.1-2.8-4.9c-1.6-0.9-4.1-1-6.4-1h-16.4L365.7,176.1L365.7,176.1z M427.3,152.1h-13.6v55.8
		h13.6V152.1z M441,201.7c-4.7-4.7-7.2-11.2-7.2-21.3c0-8.3,1.5-15.8,7.2-21.8c4.3-4.5,11.1-6.5,20.2-6.5h12.9V164h-12.6
		c-4.9,0-7.7,0.8-10.3,3.3c-2.2,2.4-3.8,6.8-3.8,12.6c0,6,1.2,10.3,3.7,13.1c2.1,2.2,5.8,2.9,9.3,2.9h6l18.8-43.8h19.9l22.6,52.7
		v-52.7H548l23.4,38.8v-38.8h13.7v55.8h-18.9L541,166.1V208h-27.2l-5.2-12.4h-27.7l-5,12.4h-15.6C453.8,207.9,445.6,206.4,441,201.7
		L441,201.7z M485.7,183.9h18.4l-9.2-22.2L485.7,183.9z M457.7,174c-0.1,0.2-1.1,2.2-1.1,6c0,3.9,0.6,5.7,1.1,6.5
		c0.5,0.2,1.3,0.3,2.6,0.3l5.8-13.5h-4.6C458.4,173.3,458.1,173.6,457.7,174L457.7,174z M678.2,52.9v350.2c0,8.3-6.8,15.1-15.1,15.1
		H106.3c-8.4,0-15.1-6.7-15.1-15.1V52.9c0-8.4,6.8-15.1,15.1-15.1H663C671.4,37.8,678.2,44.6,678.2,52.9L678.2,52.9z M243.9,217.1
		h11.7c3.6,0,7-2.1,8.4-5.5l1.8-4v0.2c0,5.1,4.1,9.2,9.2,9.2h13.7c1.9,0,3.5-0.7,5-1.6c1.5,0.9,3.1,1.6,5,1.6h44.5
		c1.7,0,3.2-0.6,4.6-1.4c1.4,0.8,2.9,1.4,4.6,1.4h13.4c5.1,0,9.2-4.1,9.2-9.2v-11.1h5.1c1.2,0,2,0.1,2.6,0.1c0,1,0,2.1,0,2.8v1.3
		l0.1,7c0,5.1,4.2,9.1,9.2,9.1h13.5c1.5,0,2.9-0.4,4.2-1.1c1.3,0.7,2.6,1.1,4.2,1.1h13.6c4.5,0,8-3.2,8.9-7.4
		c7.6,6.3,18.2,7.4,24.1,7.4h15.6c3.7,0,7.1-2.3,8.5-5.7l2.7-6.7h15.4l2.8,6.8c1.5,3.5,4.8,5.7,8.5,5.7h27c5.1,0,9.2-4.1,9.2-9.2
		v-8.8l8.2,13.6c1.7,2.8,4.7,4.5,7.9,4.5h18.9c5.1,0,9.2-4.1,9.2-9.2v-55.8c0-5.1-4.1-9.2-9.2-9.2h-13.7c-5.1,0-9.2,4.1-9.2,9.2v5.8
		l-6.3-10.5c-1.7-2.8-4.6-4.5-7.9-4.5h-20.3c-5.1,0-9.2,4.1-9.2,9.2v7.8l-4.9-11.5c-1.5-3.4-4.8-5.6-8.5-5.6h-19.9
		c-2,0-4,0.7-5.5,1.8c-1.5-1.2-3.5-1.8-5.5-1.8h-12.9c-11,0-19.1,2.7-25,7.8c-0.7-4.4-4.4-7.8-9-7.8h-13.6c-3.6,0-6.7,2.2-8.2,5.2
		c-0.6-0.4-1-0.9-1.7-1.3c-6.2-3.6-12.8-3.9-20.8-3.9h-30.7c-1.7,0-3.2,0.6-4.6,1.4c-1.4-0.8-2.9-1.4-4.6-1.4h-44.5
		c-1.9,0-3.5,0.7-4.9,1.7c-1.5-1-3.1-1.7-5-1.7h-22.2c-3.7,0-7.1,2.2-8.5,5.6l-7.9,18.7l-8.7-18.9c-1.5-3.2-4.8-5.4-8.4-5.4h-21.8
		c-5.1,0-9.2,4.1-9.2,9.2v8l-5-11.7c-1.5-3.4-4.8-5.6-8.5-5.6h-19.8c-3.7,0-7,2.2-8.5,5.6l-23.9,55.8c-1.3,2.8-1,6.1,0.8,8.7
		c1.7,2.5,4.6,4.1,7.7,4.1h14.5c3.7,0,7.1-2.2,8.5-5.7l2.8-6.8h15.5l2.7,6.8c1.4,3.5,4.8,5.7,8.5,5.7h27.1c5.1,0,9.2-4.1,9.2-9.2
		v-0.2l1.7,4C237,215,240.3,217.1,243.9,217.1L243.9,217.1z M633.6,286.3c0-7.8-2.1-13.6-6.6-18.3c-0.1-0.1-0.2-0.2-0.3-0.3
		c2.5-1.6,4.2-4.5,4.2-7.8V248c0-5.1-4.1-9.2-9.2-9.2H595c-8.3,0-14.6,2.4-19.1,6.1c-1.3-3.6-4.6-6.1-8.6-6.1h-26.7
		c-7.4,0-13.1,1.8-17.6,4.8c-1.6-2.8-4.5-4.8-7.9-4.8h-44.5c-3.6,0-6.6,2.1-8.1,5.1c-0.6-0.5-1.1-1-1.8-1.4
		c-6.4-3.5-13.3-3.7-20.4-3.7h-30.8c-3.6,0-6.7,2.1-8.2,5.1c-4.7-3-11.2-5.1-20.5-5.1h-42.6c-2.6,0-5,1.1-6.8,2.9l-10.1,10.9
		l-9.7-10.8c-1.7-1.9-4.2-3-6.9-3h-53.6c-5.1,0-9.2,4.1-9.2,9.2v55.8c0,5.1,4.1,9.2,9.2,9.2h52.8c2.6,0,5-1.1,6.7-2.9l10.2-11
		l9.6,10.9c1.7,2,4.3,3.1,6.9,3.1h25.9c5.1,0,9.2-4.1,9.2-9.2v-9.5h7.4c9,0,15.5-1.8,20.2-4.7v14.2c0,5.1,4.1,9.2,9.2,9.2h13.4
		c5.1,0,9.2-4.1,9.2-9.2v-11.2h5c1.3,0,2.1,0.1,2.7,0.1c0.1,1,0.1,2.2,0,3v8.1c0,5.1,4.1,9.2,9.2,9.2H462c1.5,0,2.8-0.4,4.1-1.1
		c1.3,0.7,2.6,1.1,4.1,1.1H515c1.5,0,2.8-0.4,4-1c1.2,0.6,2.5,1,4,1h26c8.3,0,15-2,20-5.6c1.4,3.3,4.7,5.6,8.5,5.6h26
		C622.3,313.1,633.6,303.1,633.6,286.3L633.6,286.3z M550.7,270l-7.2-0.2c-2.3,0-3.8-0.2-5.2-0.7c-1.7-0.6-2.9-2-2.9-4.2
		c0-1.7,0.6-3.1,2-4c1.3-0.9,2.9-1,5.3-1h24.5V248h-26.7c-14,0-19,8.5-19,16.6c0,17.6,15.6,16.9,28.1,17.3c2.3,0,3.7,0.4,4.8,1.2
		c0.9,0.8,1.6,2.1,1.6,3.7c0,1.5-0.7,2.8-1.6,3.7c-1.1,1-2.9,1.4-5.4,1.4h-26v11.9h26c13.4,0,20.9-5.6,20.9-17.6
		c0-5.7-1.4-9.1-4-11.8C562.9,271.5,557.9,270.2,550.7,270L550.7,270z M453.6,278c3,1.1,5.4,3,6.5,4.7c1.9,2.7,2.2,5.3,2.2,10.2V304
		H449v-7c0-3.4,0.3-8.3-2.2-10.9c-1.9-2-4.9-2.5-9.7-2.5h-14.3V304h-13.4v-55.8h30.8c6.8,0,11.6,0.3,16,2.6c4.2,2.5,6.9,6,6.9,12.4
		C463.1,272.1,457.1,276.6,453.6,278L453.6,278z M448.4,265.7c0-2.4-1-4.1-2.7-5c-1.6-1-4-1-6.3-1H423v12.5h16
		c2.6,0,4.8-0.1,6.6-1.2C447.3,270,448.4,268.1,448.4,265.7L448.4,265.7z M470.5,303.9H515v-11.6l-31.2-0.1v-11.1h30.5v-11.4h-30.5
		v-10.2H515v-11.6h-44.5V303.9L470.5,303.9z M605.2,270l-7.2-0.2c-2.2,0-3.8-0.2-5.2-0.7c-1.7-0.6-2.9-2-2.9-4.2c0-1.7,0.5-3.1,2-4
		c1.3-0.9,2.9-1,5.4-1h24.4V248H595c-14,0-19.1,8.5-19.1,16.6c0,17.6,15.6,16.9,28.1,17.3c2.3,0,3.8,0.4,4.8,1.2
		c0.9,0.8,1.6,2.1,1.6,3.7c0,1.5-0.7,2.8-1.6,3.7c-1.1,1-2.9,1.4-5.4,1.4h-25.9v11.9h26c13.4,0,21-5.6,21-17.6c0-5.7-1.4-9.1-4-11.8
		C617.4,271.5,612.4,270.2,605.2,270L605.2,270z"/>
</g>
</svg>
