<?xml version="1.0" encoding="utf-8"?>
<!-- Generator: Adobe Illustrator 17.0.0, SVG Export Plug-In . SVG Version: 6.00 Build 0)  -->
<!DOCTYPE svg PUBLIC "-//W3C//DTD SVG 1.1//EN" "http://www.w3.org/Graphics/SVG/1.1/DTD/svg11.dtd">
<svg version="1.1" id="Layer_1" xmlns="http://www.w3.org/2000/svg" xmlns:xlink="http://www.w3.org/1999/xlink" x="0px" y="0px"
	 width="772px" height="450px" viewBox="0 0 772 450" enable-background="new 0 0 772 450" xml:space="preserve">
<g>
	<rect x="1.5" y="1.5" fill="#FFFFFF" width="769" height="447"/>
	<path fill="#DCDCDC" d="M769,3v444H3V3H769 M772,0H0v450h772V0L772,0z"/>
</g>
<g>
	<rect x="94.1" y="83.8" width="31.4" height="294.3"/>
	<rect x="135.4" y="83.8" width="9.7" height="294.3"/>
	<rect x="153.6" y="83.8" width="17.4" height="294.3"/>
	<rect x="187.9" y="83.8" width="9.7" height="294.3"/>
	<rect x="201.9" y="83.8" width="7.5" height="294.3"/>
	<rect x="70.2" y="83.8" width="9.7" height="294.3"/>
	<rect x="261.4" y="83.8" width="31.4" height="294.3"/>
	<rect x="302.8" y="83.8" width="9.7" height="294.3"/>
	<rect x="321" y="83.8" width="17.4" height="294.3"/>
	<rect x="355.2" y="83.8" width="9.7" height="294.3"/>
	<rect x="369.2" y="83.8" width="7.5" height="294.3"/>
	<rect x="237.5" y="83.8" width="9.7" height="294.3"/>
	<rect x="216" y="83.8" width="17.4" height="294.3"/>
	<rect x="389.1" y="83.8" width="17.4" height="294.3"/>
	<rect x="423.3" y="83.8" width="9.7" height="294.3"/>
	<rect x="437.3" y="83.8" width="7.5" height="294.3"/>
	<rect x="472.9" y="83.8" width="9.7" height="294.3"/>
	<rect x="451.4" y="83.8" width="17.4" height="294.3"/>
	<rect x="495.6" y="83.8" width="9.7" height="294.3"/>
	<rect x="509.6" y="83.8" width="7.5" height="294.3"/>
	<rect x="545.3" y="83.8" width="9.7" height="294.3"/>
	<rect x="523.8" y="83.8" width="17.4" height="294.3"/>
	<rect x="563.5" y="83.8" width="31.4" height="294.3"/>
	<rect x="604.8" y="83.8" width="9.7" height="294.3"/>
	<rect x="623" y="83.8" width="17.4" height="294.3"/>
	<rect x="657.3" y="83.8" width="9.7" height="294.3"/>
	<rect x="671.3" y="83.8" width="7.5" height="294.3"/>
	<rect x="691.1" y="83.8" width="17.4" height="294.3"/>
	<rect x="84.3" y="213.9" fill="#FFFFFF" width="602.4" height="164.9"/>
	<g>
		<g>
			<g>
				<g>
					<defs>
						<rect id="SVGID_1_" x="48.7" y="83.8" width="659.8" height="295"/>
					</defs>
					<clipPath id="SVGID_2_">
						<use xlink:href="#SVGID_1_"  overflow="visible"/>
					</clipPath>
					<path clip-path="url(#SVGID_2_)" d="M95.6,372.5V223.2h56c11.4,0,20.5,1.5,27.4,4.5s12.3,7.7,16.2,14s5.9,12.8,5.9,19.7
						c0,6.4-1.7,12.4-5.2,18c-3.4,5.6-8.6,10.2-15.6,13.7c9,2.6,16,7.2,20.8,13.5c4.9,6.4,7.3,13.9,7.3,22.6c0,7-1.5,13.5-4.4,19.5
						s-6.6,10.6-10.9,13.9c-4.3,3.2-9.8,5.7-16.3,7.4c-6.6,1.7-14.6,2.5-24.1,2.5H95.6L95.6,372.5z M115.4,286h32.3
						c8.8,0,15-0.6,18.8-1.7c5-1.5,8.8-4,11.4-7.5s3.8-7.8,3.8-13.1c0-5-1.2-9.3-3.6-13.1c-2.4-3.8-5.8-6.4-10.2-7.8
						c-4.4-1.4-12-2.1-22.7-2.1h-29.8L115.4,286L115.4,286z M115.4,355h37.2c6.4,0,10.9-0.2,13.5-0.7c4.5-0.8,8.3-2.2,11.4-4.1
						c3.1-1.9,5.6-4.7,7.5-8.3c2-3.6,2.9-7.9,2.9-12.6c0-5.6-1.4-10.4-4.3-14.5c-2.8-4.1-6.8-7-11.9-8.7c-5-1.7-12.3-2.5-21.8-2.5
						h-34.5L115.4,355L115.4,355z"/>
				</g>
			</g>
		</g>
		<g>
			<g>
				<g>
					<defs>
						<rect id="SVGID_3_" x="48.7" y="83.8" width="659.8" height="295"/>
					</defs>
					<clipPath id="SVGID_4_">
						<use xlink:href="#SVGID_3_"  overflow="visible"/>
					</clipPath>
					<path clip-path="url(#SVGID_4_)" fill="none" stroke="#000000" stroke-miterlimit="10" d="M95.6,372.5V223.2h56
						c11.4,0,20.5,1.5,27.4,4.5s12.3,7.7,16.2,14s5.9,12.8,5.9,19.7c0,6.4-1.7,12.4-5.2,18c-3.4,5.6-8.6,10.2-15.6,13.7
						c9,2.6,16,7.2,20.8,13.5c4.9,6.4,7.3,13.9,7.3,22.6c0,7-1.5,13.5-4.4,19.5s-6.6,10.6-10.9,13.9c-4.3,3.2-9.8,5.7-16.3,7.4
						c-6.6,1.7-14.6,2.5-24.1,2.5H95.6L95.6,372.5z M115.4,286h32.3c8.8,0,15-0.6,18.8-1.7c5-1.5,8.8-4,11.4-7.5s3.8-7.8,3.8-13.1
						c0-5-1.2-9.3-3.6-13.1c-2.4-3.8-5.8-6.4-10.2-7.8c-4.4-1.4-12-2.1-22.7-2.1h-29.8L115.4,286L115.4,286z M115.4,355h37.2
						c6.4,0,10.9-0.2,13.5-0.7c4.5-0.8,8.3-2.2,11.4-4.1c3.1-1.9,5.6-4.7,7.5-8.3c2-3.6,2.9-7.9,2.9-12.6c0-5.6-1.4-10.4-4.3-14.5
						c-2.8-4.1-6.8-7-11.9-8.7c-5-1.7-12.3-2.5-21.8-2.5h-34.5L115.4,355L115.4,355z"/>
				</g>
			</g>
		</g>
		<g>
			<g>
				<g>
					<defs>
						<rect id="SVGID_5_" x="48.7" y="83.8" width="659.8" height="295"/>
					</defs>
					<clipPath id="SVGID_6_">
						<use xlink:href="#SVGID_5_"  overflow="visible"/>
					</clipPath>
					<path clip-path="url(#SVGID_6_)" d="M226.3,318.4c0-20,5.6-34.8,16.7-44.4c9.3-8,20.6-12,34-12c14.8,0,27,4.9,36.4,14.6
						s14.1,23.1,14.1,40.3c0,13.9-2.1,24.8-6.2,32.8c-4.2,8-10.3,14.1-18.2,18.6c-8,4.4-16.7,6.6-26.1,6.6
						c-15.1,0-27.4-4.8-36.7-14.5C230.9,350.5,226.3,336.6,226.3,318.4 M245,318.4c0,13.8,3,24.2,9.1,31
						c6.1,6.9,13.7,10.3,22.9,10.3c9.1,0,16.7-3.4,22.8-10.4c6-6.9,9.1-17.4,9.1-31.6c0-13.3-3.1-23.4-9.1-30.3
						c-6.1-6.9-13.6-10.3-22.7-10.3c-9.2,0-16.8,3.4-22.9,10.2C248.1,294.3,245,304.6,245,318.4"/>
				</g>
			</g>
		</g>
		<g>
			<g>
				<g>
					<defs>
						<rect id="SVGID_7_" x="48.7" y="83.8" width="659.8" height="295"/>
					</defs>
					<clipPath id="SVGID_8_">
						<use xlink:href="#SVGID_7_"  overflow="visible"/>
					</clipPath>
					<path clip-path="url(#SVGID_8_)" fill="none" stroke="#000000" stroke-miterlimit="10" d="M226.3,318.4
						c0-20,5.6-34.8,16.7-44.4c9.3-8,20.6-12,34-12c14.8,0,27,4.9,36.4,14.6s14.1,23.1,14.1,40.3c0,13.9-2.1,24.8-6.2,32.8
						c-4.2,8-10.3,14.1-18.2,18.6c-8,4.4-16.7,6.6-26.1,6.6c-15.1,0-27.4-4.8-36.7-14.5C230.9,350.5,226.3,336.6,226.3,318.4z
						 M245,318.4c0,13.8,3,24.2,9.1,31c6.1,6.9,13.7,10.3,22.9,10.3c9.1,0,16.7-3.4,22.8-10.4c6-6.9,9.1-17.4,9.1-31.6
						c0-13.3-3.1-23.4-9.1-30.3c-6.1-6.9-13.6-10.3-22.7-10.3c-9.2,0-16.8,3.4-22.9,10.2C248.1,294.3,245,304.6,245,318.4z"/>
				</g>
			</g>
		</g>
		<g>
			<g>
				<g>
					<defs>
						<rect id="SVGID_9_" x="48.7" y="83.8" width="659.8" height="295"/>
					</defs>
					<clipPath id="SVGID_10_">
						<use xlink:href="#SVGID_9_"  overflow="visible"/>
					</clipPath>
					<rect x="348.7" y="223.2" clip-path="url(#SVGID_10_)" width="18.3" height="149.2"/>
				</g>
			</g>
		</g>
		<g>
			<g>
				<g>
					<defs>
						<rect id="SVGID_11_" x="48.7" y="83.8" width="659.8" height="295"/>
					</defs>
					<clipPath id="SVGID_12_">
						<use xlink:href="#SVGID_11_"  overflow="visible"/>
					</clipPath>
					
						<rect x="348.7" y="223.2" clip-path="url(#SVGID_12_)" fill="none" stroke="#000000" stroke-miterlimit="10" width="18.3" height="149.2"/>
				</g>
			</g>
		</g>
		<g>
			<g>
				<g>
					<defs>
						<rect id="SVGID_13_" x="48.7" y="83.8" width="659.8" height="295"/>
					</defs>
					<clipPath id="SVGID_14_">
						<use xlink:href="#SVGID_13_"  overflow="visible"/>
					</clipPath>
					<path clip-path="url(#SVGID_14_)" d="M469.2,337.4l19,2.5c-2.9,11-8.5,19.6-16.5,25.7c-8.1,6.1-18.3,9.1-30.9,9.1
						c-15.8,0-28.3-4.9-37.5-14.6s-13.9-23.3-13.9-40.9c0-18.1,4.7-32.2,14-42.2s21.5-15,36.4-15c14.4,0,26.2,4.9,35.3,14.7
						c9.1,9.8,13.7,23.7,13.7,41.5c0,1.1,0,2.7-0.1,4.9h-80.6c0.7,11.8,4,20.9,10.1,27.2c6,6.3,13.6,9.4,22.5,9.4
						c6.7,0,12.4-1.8,17.2-5.3C462.6,350.9,466.4,345.2,469.2,337.4 M409.1,308.1h60.2c-0.8-9.1-3.1-15.9-6.9-20.5
						c-5.8-7-13.4-10.6-22.6-10.6c-8.4,0-15.5,2.8-21.2,8.4C412.9,291.1,409.8,298.6,409.1,308.1"/>
				</g>
			</g>
		</g>
		<g>
			<g>
				<g>
					<defs>
						<rect id="SVGID_15_" x="48.7" y="83.8" width="659.8" height="295"/>
					</defs>
					<clipPath id="SVGID_16_">
						<use xlink:href="#SVGID_15_"  overflow="visible"/>
					</clipPath>
					<path clip-path="url(#SVGID_16_)" fill="none" stroke="#000000" stroke-miterlimit="10" d="M469.2,337.4l19,2.5
						c-2.9,11-8.5,19.6-16.5,25.7c-8.1,6.1-18.3,9.1-30.9,9.1c-15.8,0-28.3-4.9-37.5-14.6s-13.9-23.3-13.9-40.9
						c0-18.1,4.7-32.2,14-42.2s21.5-15,36.4-15c14.4,0,26.2,4.9,35.3,14.7c9.1,9.8,13.7,23.7,13.7,41.5c0,1.1,0,2.7-0.1,4.9h-80.6
						c0.7,11.8,4,20.9,10.1,27.2c6,6.3,13.6,9.4,22.5,9.4c6.7,0,12.4-1.8,17.2-5.3C462.6,350.9,466.4,345.2,469.2,337.4z
						 M409.1,308.1h60.2c-0.8-9.1-3.1-15.9-6.9-20.5c-5.8-7-13.4-10.6-22.6-10.6c-8.4,0-15.5,2.8-21.2,8.4
						C412.9,291.1,409.8,298.6,409.1,308.1z"/>
				</g>
			</g>
		</g>
		<g>
			<g>
				<g>
					<defs>
						<rect id="SVGID_17_" x="48.7" y="83.8" width="659.8" height="295"/>
					</defs>
					<clipPath id="SVGID_18_">
						<use xlink:href="#SVGID_17_"  overflow="visible"/>
					</clipPath>
					<path clip-path="url(#SVGID_18_)" d="M551.1,356.1l2.5,16.2c-5.1,1.1-9.8,1.6-13.8,1.6c-6.6,0-11.8-1-15.5-3.2
						c-3.6-2.1-6.2-4.9-7.7-8.3s-2.2-10.7-2.2-21.7v-62.3h-13.5v-14.2h13.5v-26.7l18.3-11v37.8H551v14.2h-18.3v63.4
						c0,5.2,0.3,8.6,1,10.1c0.6,1.5,1.7,2.7,3.1,3.6c1.5,0.9,3.5,1.3,6.3,1.3C545.1,356.8,547.8,356.6,551.1,356.1"/>
				</g>
			</g>
		</g>
		<g>
			<g>
				<g>
					<defs>
						<rect id="SVGID_19_" x="48.7" y="83.8" width="659.8" height="295"/>
					</defs>
					<clipPath id="SVGID_20_">
						<use xlink:href="#SVGID_19_"  overflow="visible"/>
					</clipPath>
					<path clip-path="url(#SVGID_20_)" fill="none" stroke="#000000" stroke-miterlimit="10" d="M551.1,356.1l2.5,16.2
						c-5.1,1.1-9.8,1.6-13.8,1.6c-6.6,0-11.8-1-15.5-3.2c-3.6-2.1-6.2-4.9-7.7-8.3s-2.2-10.7-2.2-21.7v-62.3h-13.5v-14.2h13.5v-26.7
						l18.3-11v37.8H551v14.2h-18.3v63.4c0,5.2,0.3,8.6,1,10.1c0.6,1.5,1.7,2.7,3.1,3.6c1.5,0.9,3.5,1.3,6.3,1.3
						C545.1,356.8,547.8,356.6,551.1,356.1z"/>
				</g>
			</g>
		</g>
		<g>
			<g>
				<g>
					<defs>
						<rect id="SVGID_21_" x="48.7" y="83.8" width="659.8" height="295"/>
					</defs>
					<clipPath id="SVGID_22_">
						<use xlink:href="#SVGID_21_"  overflow="visible"/>
					</clipPath>
					<path clip-path="url(#SVGID_22_)" d="M562.3,318.4c0-20,5.6-34.8,16.7-44.4c9.3-8,20.6-12,34-12c14.8,0,27,4.9,36.4,14.6
						s14.1,23.1,14.1,40.3c0,13.9-2.1,24.8-6.3,32.8S647,363.8,639,368.3c-8,4.4-16.7,6.6-26.1,6.6c-15.1,0-27.4-4.8-36.7-14.5
						C567,350.5,562.3,336.6,562.3,318.4 M581.1,318.4c0,13.8,3,24.2,9.1,31c6.1,6.9,13.7,10.3,22.9,10.3c9.1,0,16.7-3.4,22.7-10.4
						c6-6.9,9.1-17.4,9.1-31.6c0-13.3-3-23.4-9.1-30.3s-13.6-10.3-22.7-10.3c-9.2,0-16.8,3.4-22.9,10.2
						C584.1,294.3,581.1,304.6,581.1,318.4"/>
				</g>
			</g>
		</g>
		<g>
			<g>
				<g>
					<defs>
						<rect id="SVGID_23_" x="48.7" y="83.8" width="659.8" height="295"/>
					</defs>
					<clipPath id="SVGID_24_">
						<use xlink:href="#SVGID_23_"  overflow="visible"/>
					</clipPath>
					<path clip-path="url(#SVGID_24_)" fill="none" stroke="#000000" stroke-miterlimit="10" d="M562.3,318.4
						c0-20,5.6-34.8,16.7-44.4c9.3-8,20.6-12,34-12c14.8,0,27,4.9,36.4,14.6s14.1,23.1,14.1,40.3c0,13.9-2.1,24.8-6.3,32.8
						S647,363.8,639,368.3c-8,4.4-16.7,6.6-26.1,6.6c-15.1,0-27.4-4.8-36.7-14.5C567,350.5,562.3,336.6,562.3,318.4z M581.1,318.4
						c0,13.8,3,24.2,9.1,31c6.1,6.9,13.7,10.3,22.9,10.3c9.1,0,16.7-3.4,22.7-10.4c6-6.9,9.1-17.4,9.1-31.6c0-13.3-3-23.4-9.1-30.3
						s-13.6-10.3-22.7-10.3c-9.2,0-16.8,3.4-22.9,10.2C584.1,294.3,581.1,304.6,581.1,318.4z"/>
				</g>
			</g>
		</g>
	</g>
</g>
</svg>
