<?xml version="1.0" encoding="utf-8"?>
<!-- Generator: Adobe Illustrator 17.0.0, SVG Export Plug-In . SVG Version: 6.00 Build 0)  -->
<!DOCTYPE svg PUBLIC "-//W3C//DTD SVG 1.1//EN" "http://www.w3.org/Graphics/SVG/1.1/DTD/svg11.dtd">
<svg version="1.1" id="Layer_1" xmlns="http://www.w3.org/2000/svg" xmlns:xlink="http://www.w3.org/1999/xlink" x="0px" y="0px"
	 width="772px" height="450px" viewBox="0 0 772 450" enable-background="new 0 0 772 450" xml:space="preserve">
<g>
	<g>
		<rect x="1.5" y="1.5" fill="#FFFFFF" width="769" height="447"/>
		<path fill="#DCDCDC" d="M769,3v444H3V3H769 M772,0H0v450h772V0L772,0z"/>
	</g>
</g>
<g>
	<g>
		<path stroke="#231F20" stroke-width="0.5669" stroke-miterlimit="22.9256" d="M394.1,27.3c109.3,0,197.9,88.6,197.9,197.9
			S503.4,423,394.1,423s-197.9-88.6-197.9-197.9S284.9,27.3,394.1,27.3L394.1,27.3z"/>
		<g>
			<path fill="#FFFFFF" d="M309.1,172.1c-33.6,0-60.8,27.2-60.8,60.8c0,12.5,3.8,24,10.2,33.7l60.1-26.3l25.1-11v0.1l24.5-10.7
				C361.8,191.9,337.8,172.1,309.1,172.1z M274.5,236.1c-0.1-1-0.1-2.1-0.1-3.2c0-19.2,15.6-34.8,34.8-34.8
				c10.4,0,19.7,4.6,26.1,11.8L274.5,236.1z"/>
		</g>
		<path fill="#FFFFFF" d="M351.6,276.4c-21.8,20.7-50.6,22.7-75.9,7.3L290,262c14.4,8.6,28.9,7.2,43.4-4.2L351.6,276.4L351.6,276.4z
			"/>
		<path fill="#FFFFFF" d="M376.4,261.4l-0.2-115H398v111.9c0,1.1,0.1,2,1.5,2.6l19,7.4l-8.5,22.2l-22.2-9.4
			C379.3,277.4,376.4,272.3,376.4,261.4L376.4,261.4z"/>
	</g>
</g>
<g>
	<path fill="#00A3DF" d="M458.4,259.4c-8.2-6.3-13.4-16.3-13.4-27.4c0-9.9,4.2-18.8,10.8-25.2L441.7,184
		c-14.1,11.2-23.2,28.5-23.2,48c0,21,10.5,39.4,26.6,50.5L458.4,259.4z"/>
	<path fill="#FFF100" d="M467.9,199.4c3.7-1.3,7.6-2,11.7-2c14.9,0,27.5,9.3,32.5,22.5l27-2.3c-6.5-26.8-30.6-46.7-59.4-46.7
		c-8.1,0-15.9,1.6-23,4.5L467.9,199.4z"/>
	<path fill="#EE4023" d="M514.3,233.7c-0.9,18.4-16.1,33-34.7,33c-2.9,0-5.7-0.4-8.5-1l-10.6,24.5c6,2,12.4,3,19,3
		c32.9,0,59.8-26,61.1-58.7L514.3,233.7z"/>
</g>
<g>
	<g>
		<rect x="1.5" y="1.5" fill="#FFFFFF" width="769" height="447"/>
		<path fill="#DCDCDC" d="M769,3v444H3V3H769 M772,0H0v450h772V0L772,0z"/>
	</g>
</g>
<g>
	<g>
		<path stroke="#231F20" stroke-width="0.5669" stroke-miterlimit="22.9256" d="M393.1,26.3c109.3,0,197.9,88.6,197.9,197.9
			S502.4,422,393.1,422s-197.9-88.6-197.9-197.9S283.9,26.3,393.1,26.3L393.1,26.3z"/>
		<g>
			<path fill="#FFFFFF" d="M308.1,171.1c-33.6,0-60.8,27.2-60.8,60.8c0,12.5,3.8,24,10.2,33.7l60.1-26.3l25.1-11v0.1l24.5-10.7
				C360.8,190.9,336.8,171.1,308.1,171.1z M273.5,235.1c-0.1-1-0.1-2.1-0.1-3.2c0-19.2,15.6-34.8,34.8-34.8
				c10.4,0,19.7,4.6,26.1,11.8L273.5,235.1z"/>
		</g>
		<path fill="#FFFFFF" d="M350.6,275.4c-21.8,20.7-50.6,22.7-75.9,7.3L289,261c14.4,8.6,28.9,7.2,43.4-4.2L350.6,275.4L350.6,275.4z
			"/>
		<path fill="#FFFFFF" d="M375.4,260.4l-0.2-115H397v111.9c0,1.1,0.1,2,1.5,2.6l19,7.4l-8.5,22.2l-22.2-9.4
			C378.3,276.4,375.4,271.3,375.4,260.4L375.4,260.4z"/>
	</g>
</g>
<g>
	<path fill="#00A3DF" d="M457.4,258.4c-8.2-6.3-13.4-16.3-13.4-27.4c0-9.9,4.2-18.8,10.8-25.2L440.7,183
		c-14.1,11.2-23.2,28.5-23.2,48c0,21,10.5,39.4,26.6,50.5L457.4,258.4z"/>
	<path fill="#FFF100" d="M466.9,198.4c3.7-1.3,7.6-2,11.7-2c14.9,0,27.5,9.3,32.5,22.5l27-2.3c-6.5-26.8-30.6-46.7-59.4-46.7
		c-8.1,0-15.9,1.6-23,4.5L466.9,198.4z"/>
	<path fill="#EE4023" d="M513.3,232.7c-0.9,18.4-16.1,33-34.7,33c-2.9,0-5.7-0.4-8.5-1l-10.6,24.5c6,2,12.4,3,19,3
		c32.9,0,59.8-26,61.1-58.7L513.3,232.7z"/>
</g>
</svg>
