<?xml version="1.0" encoding="utf-8"?>
<!-- Generator: Adobe Illustrator 17.0.0, SVG Export Plug-In . SVG Version: 6.00 Build 0)  -->
<!DOCTYPE svg PUBLIC "-//W3C//DTD SVG 1.1//EN" "http://www.w3.org/Graphics/SVG/1.1/DTD/svg11.dtd">
<svg version="1.1" id="Layer_1" xmlns="http://www.w3.org/2000/svg" xmlns:xlink="http://www.w3.org/1999/xlink" x="0px" y="0px"
	 width="772px" height="450px" viewBox="0 0 772 450" enable-background="new 0 0 772 450" xml:space="preserve">
<g>
	<g>
		<rect x="1.5" y="1.5" fill="#FFFFFF" width="769" height="447"/>
		<path fill="#DCDCDC" d="M769,3v444H3V3H769 M772,0H0v450h772V0L772,0z"/>
	</g>
</g>
<g>
	<path fill="#961B1E" d="M258.5,209.7c-0.1,0.1-0.2,0.2-0.3,0.3C258.4,210,258.5,210,258.5,209.7z"/>
	<path fill="#971B1E" d="M483.3,250.6c-2.1,16.8,18.1,14.8,25.3,7.8c5.5-5.4,6.9-15.1,8.1-22.7C500.2,233.7,485,236.6,483.3,250.6z"
		/>
	<path fill="#971B1E" d="M343,211c-10.7,0.4-17.5,8.7-18.5,16.2h32.8C360.2,214.7,353,210.6,343,211z"/>
	<path fill="#971B1E" d="M258.2,218.1c-1.1,5.3-1.8,11.1-2.9,17.2c-1.1,6-3.2,12.1-2.6,17.9c1.4,13.3,19.8,13.4,27.3,5.5
		c6.2-6.6,11.3-22.8,9.4-35.7C287.2,208.1,265.5,209.1,258.2,218.1z"/>
	<path fill="#971B1E" d="M240.6,91.5c-22.2,0-66.6,0-66.6,0c-29.4,1.4-53.5,13.2-60.4,37.7c-3.6,12.7-5.6,26.7-8.4,39.9
		c-14.4,67.2-27.2,136.2-40.9,202h518.4c40.1,0,67.6-8.5,75-40.3c3.5-14.8,6.8-31.5,10.1-47.7c12.9-63.3,25.8-126.6,39-191.6H240.6
		L240.6,91.5z M225.7,178.5c1.1-1.5,2.7-2.4,5.5-2.9c3-0.5,5.2-0.2,6.5,1c4.1,3.6,0.5,12.4-2.3,14.3c-1.8,1.2-7.7,2.6-10.4,0
		C222.3,188.2,223.9,180.9,225.7,178.5z M179.3,271.4c2.5-15.9,5.8-31.1,8.4-46.8c-13-1.2-29.3-0.7-42.9-0.3
		c-3.3,15.1-5.6,31.2-8.1,47.1h-15.9c6.2-31,11.3-63.2,16.9-94.8h15.6c-2.6,12.4-4.5,25.6-7.1,38c14,1,28.7,0.5,43.2,0.3
		c2.3-12.7,4.5-25.4,6.5-38.3h16.2c-6.4,30.9-11.8,62.7-16.9,94.8H179.3z M209.1,271.4c4.4-21.6,8.6-43.6,11.7-66.6
		c0-0.5-0.1-0.9,0.3-1h14c-4.8,21.7-8.7,44.4-12,67.6H209.1z M283.2,269.5c-8.8,4.8-29.6,7.1-32.8-5.2c-2.8,11.7-4.1,24.9-6.2,37.4
		h-14c6.3-32.1,12.2-64.4,17.2-97.8h12c-0.1,2.2-0.9,3.7-1,5.8c0,0,0,0,0,0.1c6.2-5,20.7-10.3,32.5-5.9
		C315.3,213,301.3,259.6,283.2,269.5z M368.6,235c-15.1-0.4-30.7-0.5-45.8,0c-2.3,10-2.3,21.5,4.9,26c9.5,6,25.5,1.2,34.8-2.3
		c-0.6,3.7-1.6,7.1-1.9,11c-22.4,5.5-50.4,6.3-52.9-16.2c-1.8-15.8,4.3-33.1,11.7-40.9c6.1-6.4,14.6-9.3,24.7-10.1
		c11.5-0.9,22.8,1.5,26,10.7C372.3,220.2,369.6,228,368.6,235z M393.6,227.9c-4.3,12.6-5.2,30.4-7.1,43.5h-14
		c4.2-22.2,8.7-44.2,11.7-67.6h12.3c-0.8,3.7-1.3,7.8-2.3,11.4c4.5-7.9,14.2-16.4,26.6-11.4c-0.4,3.5-1.4,6.4-1.6,10.1
		C406.2,209.2,397.1,217.8,393.6,227.9z M460.2,269.5c-18.2,6.3-40.8,5.4-45.8-11c-4.3-14.1,1.8-36.4,11-46.1
		c9.5-9.9,27.3-11.8,46.1-8.8c-0.5,3.7-1.3,7.2-1.6,11c-11.5-4-25.8-5.2-33.1,1.9c-5.3,5.2-8.7,16.6-9.4,26c-0.3,4.2,0,9.7,1.3,13
		c4.4,11.4,23.5,8.8,33.5,3.6C461.4,262.5,461,266.1,460.2,269.5z M529.1,240.2c-1.8,10.4-3.4,19.7-3.6,31.2h-12
		c-0.2-4,0.4-7.2,1-10.4c-5.8,9.2-22.4,15.9-36.1,10.1c-7.1-3-10.8-13.9-7.5-25c5-16.5,23.9-20.4,47.1-18.2c1-2.9,2.4-6.7,1.6-10.4
		c-2.5-11-28.1-4.7-36.4-2.6c0.9-3.7,1.9-7.2,2.6-11c16.5-0.5,46.1-6.8,47.1,11C533.4,222.7,530.6,231.4,529.1,240.2z M554.4,247
		c-1.4,8.8-3.2,15.4-3.2,24.4h-14.3c4.7-21.8,8.7-44.4,12-67.6h12.3c-1.1,3.3-1.1,7.5-2.3,10.7c4-6.2,14.3-16.6,26.6-10.4
		c-0.9,3-1.2,6.6-1.9,9.7C561.8,207.7,557.4,228.3,554.4,247z M635.9,271.4h-12.7c0.1-3.7,0.8-6.8,1.3-10.1
		c-0.3-0.9-1.7,2.1-2.6,3.2c-1.2,1.5-3.1,3.7-4.9,4.9c-9.4,6.2-27.9,4.4-34.4-2.9c-3.8-4.3-4.8-10.2-4.9-16.2
		c-0.4-31.1,20.6-56.3,54.9-45.5c2.1-9.6,3.7-19.7,4.9-30.2h14C645.9,206.5,638.3,236.4,635.9,271.4z"/>
	<path fill="#971B1E" d="M614.1,211.3c-15,1.7-22.5,20.5-22.1,37.4c0.2,9.6,4.9,15.5,14.3,15.3c22-0.5,20.3-31,25-50
		C626.2,212.2,621.2,210.5,614.1,211.3z"/>
</g>
</svg>
