<?xml version="1.0" encoding="utf-8"?>
<!-- Generator: Adobe Illustrator 17.0.0, SVG Export Plug-In . SVG Version: 6.00 Build 0)  -->
<!DOCTYPE svg PUBLIC "-//W3C//DTD SVG 1.1//EN" "http://www.w3.org/Graphics/SVG/1.1/DTD/svg11.dtd">
<svg version="1.1" id="Layer_1" xmlns="http://www.w3.org/2000/svg" xmlns:xlink="http://www.w3.org/1999/xlink" x="0px" y="0px"
	 width="772px" height="450px" viewBox="0 0 772 450" style="enable-background:new 0 0 772 450;" xml:space="preserve">
<g>
	<g>
		<rect x="1.5" y="1.5" style="fill:#FFFFFF;" width="769" height="447"/>
		<path style="fill:#DCDCDC;" d="M769,3v444H3V3H769 M772,0H0v450h772V0L772,0z"/>
	</g>
	<g>
		<g>
			<path style="fill:#F7971D;" d="M386,348.3c29.5,26.8,68.6,43.1,111.4,43.1c91.7,0,166-74.5,166-166.4s-74.3-166.4-166-166.4
				c-42.9,0-82,16.3-111.4,43.1c-33.5,30.4-54.6,74.4-54.6,123.3C331.4,273.9,352.5,317.9,386,348.3"/>
			<path style="fill:#F7971D;" d="M641.3,317.7c0-3,2.4-5.4,5.4-5.4s5.4,2.4,5.4,5.4s-2.4,5.4-5.4,5.4S641.3,320.7,641.3,317.7
				 M646.7,321.8c2.2,0,4.1-1.8,4.1-4.1s-1.8-4.1-4.1-4.1s-4.1,1.8-4.1,4.1S644.4,321.8,646.7,321.8 M646,320.1h-1.1v-4.7h2
				c0.4,0,0.8,0,1.2,0.2c0.4,0.3,0.6,0.7,0.6,1.2c0,0.6-0.3,1-0.8,1.2l0.9,2.1h-1.2l-0.7-1.9H646V320.1z M646,317.4h0.6
				c0.2,0,0.5,0,0.7-0.1s0.3-0.4,0.3-0.6s-0.1-0.4-0.3-0.5s-0.5-0.1-0.7-0.1H646V317.4z"/>
			<path style="fill:#CA2027;" d="M439.7,207.4c-0.6-6-1.6-11.9-2.8-17.6H335.2c1.3-6,2.9-11.9,4.8-17.6h92c-2-6-4.4-11.9-7-17.6
				h-77.9c2.8-6.1,6.1-12,9.6-17.6h58.8c-3.8-6.1-8.1-12-12.7-17.6h-33.5c5.2-6.3,10.7-12.2,16.7-17.6c-29.5-26.7-68.6-43-111.4-43
				c-91.7,0-166,74.5-166,166.4s74.3,166.3,166,166.3c42.9,0,82-16.3,111.4-43c6-5.5,11.6-11.3,16.8-17.6h-33.5
				c-4.6-5.6-8.8-11.5-12.6-17.6h58.8c3.5-5.7,6.7-11.5,9.6-17.6h-77.9c-2.7-5.7-5.1-11.6-7.1-17.6h92c1.9-5.7,3.5-11.6,4.8-17.6
				c1.2-5.8,2.2-11.6,2.8-17.6c0.6-5.8,0.9-11.7,0.9-17.6C440.6,219,440.3,213.2,439.7,207.4"/>
			<path style="fill:#FFFFFF;" d="M641.3,263.6c0-3,2.4-5.4,5.4-5.4s5.4,2.4,5.4,5.4s-2.4,5.4-5.4,5.4S641.3,266.6,641.3,263.6
				 M646.7,267.7c2.2,0,4.1-1.8,4.1-4.1s-1.8-4.1-4.1-4.1s-4.1,1.8-4.1,4.1S644.4,267.7,646.7,267.7 M646,265.9h-1.1v-4.7h2
				c0.4,0,0.8,0,1.2,0.2c0.4,0.3,0.6,0.7,0.6,1.2s-0.3,1-0.8,1.2l0.9,2.1h-1.2l-0.7-1.9H646V265.9z M646,263.3h0.6
				c0.2,0,0.5,0,0.7-0.1s0.3-0.3,0.3-0.5s-0.1-0.4-0.3-0.5s-0.5-0.1-0.7-0.1H646V263.3z"/>
			<path style="fill:#22205F;" d="M329.6,273c-5.6,1.6-9.4,2.2-13.6,2.2c-8.4,0-13.6-5.3-13.6-15.1c0-1.9,0.2-4,0.5-6.2l1.1-6.7
				l0.8-5.4l7.8-46.8H330l-2.1,10.2h10.8l-2.5,17.3h-10.9l-4.7,28c-0.2,1.3-0.3,2.2-0.3,2.8c0,3.5,1.9,5.1,6.1,5.1
				c2,0,3.6-0.2,5.5-0.7L329.6,273"/>
			<path style="fill:#22205F;" d="M385.2,272.4c-6.2,1.9-12.1,2.8-18.5,2.8c-19.3,0-30.6-10.5-30.6-30.7c0-23.6,13.4-40.9,31.5-40.9
				c14.8,0,24.3,9.7,24.3,24.9c0,5-0.7,10-2.2,16.9h-35.8c-0.1,1.1-0.2,1.5-0.2,2.2c0,8,5.4,12,15.8,12c6.4,0,12.2-1.3,18.7-4.3
				L385.2,272.4 M374.5,231.6c0.1-1.4,0.2-2.6,0.2-3.5c0-5.6-3.2-8.8-8.5-8.8c-5.7,0-9.8,4.4-11.5,12.3H374.5z"/>
			<polygon style="fill:#22205F;" points="192,273.9 174,273.9 184.3,209 161.3,273.9 149,273.9 147.5,209.4 136.6,273.9 
				119.1,273.9 133.2,189.5 159.1,189.5 159.9,241.7 177.3,189.5 205.9,189.5 			"/>
			<path style="fill:#22205F;" d="M235.3,243.3c-1.9-0.2-2.3-0.3-3.5-0.3c-10.2,0-15.4,3.9-15.4,10.4c0,4.3,2.5,7,6.5,7
				C231.6,260.5,235,253.5,235.3,243.3 M249.5,273.9H234l0.3-7.1c-3.9,5.4-9.3,8.3-18.9,8.3c-8.7,0-16-7.6-16-18.7
				c0-3.3,0.6-6.2,1.3-9c2.8-10.5,13.5-17.3,29.9-17.5c2,0,5.3-0.1,7.9,0.3c0.6-2.3,0.7-3.2,0.7-4.4c0-4.5-3.7-6-12.2-6
				c-5.1,0-10.9,0.9-14.9,2.1l-2.5,0.7l-1.1,0.3l2.5-15.4c8.4-2.6,14.3-3.6,21-3.6c15.5,0,23.7,7,23.7,20.1c0,3.4,0.3,5.9-0.9,13.6
				l-3.8,24.3l-0.6,4.4l-0.5,3.5l-0.3,2.4L249.5,273.9z"/>
			<path style="fill:#22205F;" d="M471.9,205.9c5,0,9.7,1.3,16.1,4.6l3-18.3c-1.6-0.7-2.1-0.8-4.4-1.7l-7.4-1.9
				c-2.3-0.6-5-0.9-8.1-0.9c-8.9,0-14.2,0.1-19.6,3.4c-2.9,1.8-6.5,4.4-10.8,9l-2.1-0.7l-18.4,13.1l0.9-7.4H402l-11,68.6h18
				l6.6-36.9c0,0,2.6-5,3.8-6.6c3.3-4.5,6.3-4.5,10-4.4c0.5,0,1.1,0,1.3,0c-0.5,4-0.8,8.3-0.8,13c0,22.4,12.7,36.4,32.1,36.4
				c5,0,9.3-0.7,15.9-2.5l3.2-19.2c-6,2.9-10.9,4.3-15.3,4.3c-10.5,0-16.8-7.7-16.8-20.6C449,218.9,458.4,205.9,471.9,205.9"/>
			<path style="fill:#22205F;" d="M624.2,189.5l-4,24.1c-4.3-6.5-9.5-9.6-16.5-9.6c-9.5,0-18.1,5.4-23.7,15.6v-0.1l-11.4-6.8
				l0.9-7.4h-19.1l-11,68.6h18l6-36.9c0,0,4.6-5.2,5.8-6.7c2.7-3.5,5.6-4.2,8-4.3c-2.1,5.8-3.3,12.7-3.3,20.4
				c0,17.1,8.9,28.5,22,28.5c6.6,0,11.7-2.3,16.7-7.6l-0.9,6.7h17.1l13.7-84.4h-18.3 M602.2,257.7c-6.1,0-9.2-4.5-9.2-13.5
				c0-13.5,5.8-23.1,14-23.1c6.2,0,9.6,4.7,9.6,13.5C616.5,248.2,610.6,257.7,602.2,257.7"/>
			<path style="fill:#22205F;" d="M519.2,243.3c-1.9-0.2-2.3-0.3-3.5-0.3c-10.2,0-15.4,3.9-15.4,10.4c0,4.3,2.5,7,6.5,7
				C515.5,260.5,518.9,253.5,519.2,243.3 M533.5,273.9h-15.6l0.3-7.1c-3.9,5.4-9.3,8.3-18.9,8.3c-8.7,0-16.6-7.5-16.6-18.8
				c0.1-16.3,12.3-26.4,31.7-26.4c2.1,0,5.2-0.1,7.9,0.3c0.6-2.3,0.7-3.2,0.7-4.4c0-4.5-3.7-6-12.2-6c-5.1,0-10.9,0.9-14.9,2.1
				l-2.5,0.7l-1,0.3l2.5-15.4c8.4-2.6,14.3-3.6,20.9-3.6c15.5,0,23.7,7,23.7,20.1c0,3.4,0.3,5.9-0.9,13.6l-3.8,24.3l-0.6,4.4
				l-0.5,3.5l-0.3,2.4L533.5,273.9z"/>
			<path style="fill:#22205F;" d="M287.1,220c3.5,0,8.4,0.3,13.5,1l2.6-15.8c-5.3-0.8-12-1.4-16.1-1.4c-20.1,0-26.8,10.8-26.8,23.4
				c0,8.2,4,14.3,13.5,18.8c7.3,3.4,8.5,4.1,8.5,7.2c0,4.3-3.7,6.7-10.8,6.7c-5.4,0-10.4-0.8-16.1-2.7l-2.1,15.8l0.4,0.1l3.3,0.7
				c1.1,0.2,2.7,0.5,4.7,0.7c4.3,0.4,7.9,0.6,10.2,0.6c20,0,28.3-7.8,28.3-22.9c0-9.4-4.5-15-13.5-19.1c-7.5-3.5-8.5-4-8.4-7.2
				C278.3,222.7,281.6,220,287.1,220"/>
			<path style="fill:#FFFFFF;" d="M495.8,186.8l-3,18.3c-6.4-3.2-11.1-4.5-16.1-4.5c-13.5,0-22.9,13-22.9,31.6
				c0,12.8,6.3,20.6,16.8,20.6c4.4,0,9.3-1.4,15.3-4.3l-3.2,19.2c-6.6,1.8-10.9,2.5-15.9,2.5c-19.4,0-31.5-14-31.5-36.4
				c0-30.2,16.7-51.3,40.6-51.3c3.1,0,5.8,0.3,8.1,0.9l7.4,1.9C493.8,186,494.2,186.2,495.8,186.8"/>
			<path style="fill:#FFFFFF;" d="M438,199.4c-0.5-0.1-1.1-0.2-1.8-0.2c-5.9,0-9.3,3-14.8,11.1L423,200h-16.3l-11,68.6h18
				c6.4-42,8.1-49.2,16.8-49.2c0.6,0,0.6,0,1.3,0.1c1.6-8.3,3.8-14.4,6.8-19.9L438,199.4"/>
			<path style="fill:#FFFFFF;" d="M334.2,267.7c-4.9,1.6-8.8,2.2-12.9,2.2c-9.2,0-14.2-5.3-14.2-15.1c0-1.9,0.2-4,0.5-6.2l1.1-6.7
				l0.8-5.4l7.8-46.8h17.9l-2.1,10.2h9.2l-2.5,16.7h-9.2l-4.7,28.6c-0.2,1.2-0.3,2.2-0.3,2.8c0,3.5,1.9,5.1,6.1,5.1
				c2.1,0,3.6-0.2,4.9-0.6L334.2,267.7"/>
			<path style="fill:#FFFFFF;" d="M264.9,221.6c0,8.7,4.2,14.6,13.7,19.1c7.3,3.4,8.4,4.4,8.4,7.5c0,4.3-3.2,6.2-10.3,6.2
				c-5.4,0-10.4-0.8-16.1-2.7l-2.5,15.8l0.8,0.2l3.3,0.7c1.1,0.2,2.6,0.4,4.7,0.6c4.3,0.4,7.6,0.6,9.9,0.6c19,0,27.8-7.2,27.8-22.9
				c0-9.4-3.7-14.9-12.7-19.1c-7.5-3.5-8.4-4.2-8.4-7.4c0-3.7,3-5.6,8.8-5.6c3.5,0,8.4,0.4,12.9,1l2.6-15.9
				c-4.7-0.7-11.7-1.3-15.8-1.3C271.8,198.4,264.9,209,264.9,221.6"/>
			<path style="fill:#FFFFFF;" d="M633.4,268.6h-17l0.9-6.7c-5,5.3-10.1,7.6-16.7,7.6c-13.1,0-21.8-11.3-21.8-28.5
				c0-22.8,13.4-42.1,29.3-42.1c7,0,12.3,2.9,17.3,9.4l3.9-24.1h17.8L633.4,268.6 M606.8,252.4c8.4,0,14.3-9.5,14.3-23.1
				c0-8.7-3.3-13.5-9.6-13.5c-8.2,0-14,9.6-14,23.1C597.6,247.9,600.7,252.4,606.8,252.4"/>
			<path style="fill:#FFFFFF;" d="M389.2,267.1c-6.2,1.9-12.2,2.8-18.5,2.8c-20.1,0-30.6-10.6-30.6-30.7c0-23.6,13.4-40.9,31.5-40.9
				c14.8,0,24.3,9.7,24.3,25c0,5.1-0.7,10-2.2,16.9h-35.8c-0.1,1.1-0.2,1.5-0.2,2.1c0,8,5.3,12,15.8,12c6.4,0,12.3-1.3,18.7-4.4
				L389.2,267.1 M379.1,226.3c0.1-1.4,0.2-2.6,0.2-3.5c0-5.6-3.2-8.8-8.5-8.8c-5.7,0-9.8,4.4-11.5,12.3H379.1z"/>
			<polygon style="fill:#FFFFFF;" points="196.6,268.6 178.6,268.6 188.9,203.7 165.9,268.6 153.6,268.6 152,204.1 141.2,268.6 
				124.3,268.6 138.4,184.2 164.4,184.2 165.1,236.4 182.6,184.2 210.5,184.2 			"/>
			<path style="fill:#FFFFFF;" d="M241,238c-1.9-0.2-2.7-0.3-4-0.3c-10.2,0-15.4,3.5-15.4,10.4c0,4.3,2.5,7,6.5,7
				C235.4,255.2,240.7,248.2,241,238 M254.1,268.6h-14.9l0.4-7.1c-4.6,5.6-10.6,8.3-18.9,8.3c-9.8,0-16.5-7.6-16.5-18.7
				c0-16.7,11.7-26.4,31.6-26.4c2,0,4.7,0.2,7.3,0.5c0.6-2.3,0.7-3.2,0.7-4.5c0-4.5-3.2-6.2-11.6-6.2c-5.1,0-10.9,0.7-15,1.9
				l-2.5,0.7l-1.6,0.4l2.5-15.4c9-2.6,14.9-3.6,21.6-3.6c15.5,0,23.7,7,23.7,20.1c0,3.4-0.3,5.9-1.5,13.6l-3.8,24.3l-0.6,4.4
				l-0.5,3.5l-0.3,2.4L254.1,268.6z"/>
			<path style="fill:#FFFFFF;" d="M524.9,238c-1.9-0.2-2.7-0.3-4-0.3c-10.2,0-15.4,3.5-15.4,10.4c0,4.3,2.5,7,6.5,7
				C519.3,255.2,524.6,248.2,524.9,238 M538,268.6h-14.9l0.4-7.1c-4.6,5.6-10.6,8.3-18.9,8.3c-9.8,0-16.5-7.6-16.5-18.7
				c0-16.7,11.6-26.4,31.6-26.4c2,0,4.7,0.2,7.3,0.5c0.6-2.3,0.7-3.2,0.7-4.5c0-4.5-3.2-6.2-11.6-6.2c-5.1,0-10.9,0.7-14.9,1.9
				l-2.5,0.7l-1.6,0.4l2.5-15.4c9-2.6,14.9-3.6,21.6-3.6c15.5,0,23.7,7,23.7,20.1c0,3.4-0.3,5.9-1.5,13.6l-3.8,24.3l-0.6,4.4
				l-0.5,3.5l-0.3,2.4L538,268.6z"/>
			<path style="fill:#FFFFFF;" d="M586.4,199.4c-0.6-0.1-1.2-0.2-1.8-0.2c-5.9,0-9.3,3-14.8,11.1l1.6-10.4H555l-11,68.6h18
				c6.5-42,8.1-49.2,16.8-49.2c0.6,0,0.5,0,1.2,0.1c1.6-8.3,3.8-14.4,6.9-19.9L586.4,199.4"/>
		</g>
	</g>
</g>
</svg>
