<?xml version="1.0" encoding="utf-8"?>
<!-- Generator: Adobe Illustrator 17.0.0, SVG Export Plug-In . SVG Version: 6.00 Build 0)  -->
<!DOCTYPE svg PUBLIC "-//W3C//DTD SVG 1.1//EN" "http://www.w3.org/Graphics/SVG/1.1/DTD/svg11.dtd">
<svg version="1.1" id="Layer_1" xmlns="http://www.w3.org/2000/svg" xmlns:xlink="http://www.w3.org/1999/xlink" x="0px" y="0px"
	 width="772px" height="450px" viewBox="0 0 772 450" style="enable-background:new 0 0 772 450;" xml:space="preserve">
<g>
	<rect x="1.5" y="1.5" style="fill:#FFFFFF;" width="769" height="447"/>
	<path style="fill:#DCDCDC;" d="M769,3v444H3V3H769 M772,0H0v450h772V0L772,0z"/>
</g>
<g>
	<path style="fill:#00589F;" d="M664,130.9h-40.2c-12.5,0-21.8,3.4-27.2,15.9l-77.2,174.8H574c0,0,8.9-23.5,11-28.7
		c5.9,0,59,0.1,66.6,0.1c1.5,6.7,6.3,28.5,6.3,28.5H706L664,130.9z M599.9,253.9c4.3-11,20.7-53.3,20.7-53.3
		c-0.3,0.5,4.2-11,6.9-18.2l3.5,16.5c0,0,9.9,45.5,12,55.1L599.9,253.9L599.9,253.9z M523,259.1c-0.4,39.6-35.8,65.2-90.5,65.2
		c-23.3-0.3-45.8-4.8-58-10.2l7.3-42.7l6.7,3.1c17.1,7.1,28.1,10,49,10c15,0,30.9-5.9,31.1-18.7c0.1-8.4-6.7-14.3-27-23.6
		c-19.7-9.1-45.8-24.4-45.5-51.8c0.3-37.1,36.5-62.9,87.9-62.9c20.1,0,36.2,4.1,46.5,8l-7.1,41.3l-4.7-2.2
		c-9.5-3.8-21.9-7.6-38.9-7.3c-20.3,0-29.8,8.5-29.8,16.5c-0.1,8.9,11,14.8,29.2,23.6C509.4,220.9,523.3,237.4,523,259.1L523,259.1z
		 M301.6,130.9l-81.9,190.4l-55,0.1l-46.5-159c33.5,21.4,62,55.4,72,79.1l5.4,19.7l50.9-130.1L301.6,130.9L301.6,130.9z
		 M322.6,130.7h52L342,321.5h-52L322.6,130.7z"/>
</g>
<path style="fill:#F9A51A;" d="M66.5,132.9l0.7-3.8h80.6c10.9,0.4,19.6,3.8,22.7,15.5l17.5,84.3C170.7,184.8,129.2,148.1,66.5,132.9
	L66.5,132.9z"/>
</svg>
